<svg xmlns="http://www.w3.org/2000/svg" width="185" height="72" fill="none"><path fill="#E7ECF6" d="M83.476 48.57c4.406 0 8.26-2.169 10.326-5.577l-4.75-2.753c-1.033 1.859-3.132 2.96-5.576 2.96-4.269 0-7.022-2.857-7.022-7.16 0-4.302 2.754-7.16 7.022-7.16 2.444 0 4.509 1.102 5.576 2.961l4.75-2.754c-2.1-3.407-5.955-5.576-10.326-5.576-7.263 0-12.53 5.439-12.53 12.53s5.267 12.529 12.53 12.529M108.013 30.877v1.618c-1.136-1.308-2.822-2.1-5.128-2.1-4.51 0-8.227 3.959-8.227 9.088s3.717 9.087 8.227 9.087c2.306 0 3.992-.792 5.128-2.1v1.618h5.163v-17.21zm-4.096 12.805c-2.375 0-4.096-1.618-4.096-4.2s1.721-4.199 4.096-4.199 4.096 1.618 4.096 4.2-1.721 4.199-4.096 4.199M124.365 48.57c3.373 0 6.299-1.756 7.779-4.44l-4.509-2.582c-.551 1.205-1.824 1.927-3.339 1.927-2.237 0-3.89-1.617-3.89-3.992s1.653-3.993 3.89-3.993c1.515 0 2.754.723 3.339 1.927l4.509-2.616c-1.48-2.65-4.44-4.406-7.779-4.406-5.232 0-9.122 3.959-9.122 9.088s3.89 9.087 9.122 9.087M143.447 30.395c-2.272 0-3.993.826-4.922 2.1v-8.502h-5.164v24.095h5.164V38.69c0-2.444 1.308-3.546 3.201-3.546 1.652 0 2.994.999 2.994 3.133v9.81h5.164V37.52c0-4.647-2.961-7.126-6.437-7.126M155.15 29.363c1.687 0 3.098-1.412 3.098-3.098 0-1.687-1.411-3.098-3.098-3.098s-3.098 1.411-3.098 3.098 1.412 3.098 3.098 3.098m-2.581 18.725h5.163v-17.21h-5.163zM176.999 48.088l-6.161-8.743 5.955-8.468h-5.92l-2.995 4.268-2.995-4.268h-5.92l5.955 8.468-6.162 8.743h5.921l3.201-4.544 3.201 4.544z"/><path fill="#E7ECF6" fill-rule="evenodd" d="M47.44 25.332 30.373 13.334 13.02 25.354v1.653l17.352 11.75L47.44 27.03zM9.545 21.655A3.59 3.59 0 0 0 8 24.603v3.165c0 1.19.59 2.302 1.575 2.968l18.792 12.726a3.59 3.59 0 0 0 4.041-.013l18.498-12.71a3.59 3.59 0 0 0 1.555-2.956v-3.196a3.59 3.59 0 0 0-1.524-2.933L32.439 8.652a3.59 3.59 0 0 0-4.103-.014z" clip-rule="evenodd"/><path fill="#E7ECF6" fill-rule="evenodd" d="M8.064 38.244a3.59 3.59 0 0 0 1.516 2.32l18.792 12.725a3.585 3.585 0 0 0 4.041-.014l18.497-12.71a3.59 3.59 0 0 0 1.499-2.32h-6.985L30.377 48.583l-15.269-10.34z" clip-rule="evenodd"/><path fill="#E7ECF6" fill-rule="evenodd" d="M8.064 48.339a3.59 3.59 0 0 0 1.516 2.318l18.792 12.726a3.59 3.59 0 0 0 4.041-.014L50.91 50.66a3.59 3.59 0 0 0 1.499-2.32h-6.985l-15.047 10.34-15.269-10.34z" clip-rule="evenodd"/></svg>