<svg width="185" height="72" viewBox="0 0 185 72" fill="none" xmlns="http://www.w3.org/2000/svg">
<path d="M83.4757 48.5697C87.8816 48.5697 91.7367 46.4012 93.802 42.9935L89.0519 40.2398C88.0192 42.0986 85.9196 43.2 83.4757 43.2C79.2075 43.2 76.4538 40.3431 76.4538 36.0405C76.4538 31.7378 79.2075 28.8809 83.4757 28.8809C85.9196 28.8809 87.9848 29.9824 89.0519 31.8411L93.802 29.0874C91.7023 25.6797 87.8471 23.5112 83.4757 23.5112C76.2128 23.5112 70.9464 28.9497 70.9464 36.0405C70.9464 43.1312 76.2128 48.5697 83.4757 48.5697Z" fill="#E7ECF6"/>
<path d="M108.013 30.8773V32.4951C106.877 31.1871 105.191 30.3954 102.885 30.3954C98.3754 30.3954 94.6579 34.3538 94.6579 39.4826C94.6579 44.6113 98.3754 48.5697 102.885 48.5697C105.191 48.5697 106.877 47.778 108.013 46.47V48.0878H113.176V30.8773H108.013ZM103.917 43.6819C101.542 43.6819 99.8211 42.0641 99.8211 39.4826C99.8211 36.901 101.542 35.2832 103.917 35.2832C106.292 35.2832 108.013 36.901 108.013 39.4826C108.013 42.0641 106.292 43.6819 103.917 43.6819Z" fill="#E7ECF6"/>
<path d="M124.365 48.5697C127.738 48.5697 130.664 46.8142 132.144 44.1294L127.635 41.5478C127.084 42.7526 125.811 43.4754 124.296 43.4754C122.059 43.4754 120.406 41.8576 120.406 39.4826C120.406 37.1075 122.059 35.4897 124.296 35.4897C125.811 35.4897 127.05 36.2126 127.635 37.4173L132.144 34.8013C130.664 32.1509 127.704 30.3954 124.365 30.3954C119.133 30.3954 115.243 34.3538 115.243 39.4826C115.243 44.6113 119.133 48.5697 124.365 48.5697Z" fill="#E7ECF6"/>
<path d="M143.447 30.3954C141.175 30.3954 139.454 31.2215 138.525 32.4951V23.9931H133.361V48.0878H138.525V38.6909C138.525 36.247 139.833 35.1455 141.726 35.1455C143.378 35.1455 144.72 36.1437 144.72 38.2778V48.0878H149.884V37.5206C149.884 32.8737 146.923 30.3954 143.447 30.3954Z" fill="#E7ECF6"/>
<path d="M155.15 29.3628C156.837 29.3628 158.248 27.9515 158.248 26.2649C158.248 24.5783 156.837 23.167 155.15 23.167C153.464 23.167 152.052 24.5783 152.052 26.2649C152.052 27.9515 153.464 29.3628 155.15 29.3628ZM152.569 48.0878H157.732V30.8773H152.569V48.0878Z" fill="#E7ECF6"/>
<path d="M176.999 48.0878L170.838 39.3449L176.793 30.8773H170.873L167.878 35.1455L164.883 30.8773H158.963L164.918 39.3449L158.756 48.0878H164.677L167.878 43.5442L171.079 48.0878H176.999Z" fill="#E7ECF6"/>
<path fill-rule="evenodd" clip-rule="evenodd" d="M47.4408 25.332L30.3715 13.3344L13.0197 25.3539V27.0068L30.3719 38.7574L47.4408 27.0286V25.332ZM9.54384 21.6552C8.57692 22.325 8 23.4264 8 24.6027V27.7677C8 28.9573 8.59004 30.0695 9.57506 30.7365L28.3673 43.4624C29.5889 44.2896 31.1924 44.2842 32.4084 43.4487L50.9056 30.7384C51.8789 30.0695 52.4605 28.9643 52.4605 27.7833V24.587C52.4605 23.4195 51.892 22.325 50.9368 21.6536L32.4394 8.65213C31.2097 7.7878 29.5714 7.78219 28.3358 8.63807L9.54384 21.6552Z" fill="#E7ECF6"/>
<path fill-rule="evenodd" clip-rule="evenodd" d="M8.06415 38.2444C8.23666 39.1803 8.77708 40.0195 9.57984 40.5631L28.3721 53.289C29.5936 54.1162 31.1972 54.1108 32.4131 53.2752L50.9103 40.565C51.7067 40.0177 52.2408 39.1784 52.4087 38.2444H45.4239L30.3766 48.584L15.1081 38.2444H8.06415Z" fill="#E7ECF6"/>
<path fill-rule="evenodd" clip-rule="evenodd" d="M8.06415 48.3386C8.23666 49.2745 8.77708 50.1137 9.57984 50.6574L28.3721 63.3832C29.5936 64.2104 31.1972 64.205 32.4131 63.3695L50.9103 50.6592C51.7067 50.112 52.2408 49.2726 52.4087 48.3386H45.4239L30.3766 58.6783L15.1081 48.3386H8.06415Z" fill="#E7ECF6"/>
</svg>
